# AST/ASF file generated using VICON BodyLanguage
# -----------------------------------------------
:version 1.10
:name VICON
:units
  mass 1.0
  length 0.45
  angle deg
:documentation
   .ast/.asf automatically generated from VICON data using
   VICON BodyBuilder and BodyLanguage model FoxedUp or BRILLIANT.MOD
:root
   order TX TY TZ RX RY RZ
   axis XYZ
   position 0 0 0  
   orientation 0 0 0 
:bonedata
  begin
     id 1 
     name lhipjoint
     direction 0.577973 -0.728611 0.367523 
     length 2.48544 
     axis 0 0 0  XYZ
  end
  begin
     id 2 
     name lfemur
     direction 0.34202 -0.939693 0  
     length 7.1921  
     axis 0 0 20  XYZ
    dof rx ry rz
    limits (-160.0 20.0)
           (-70.0 70.0)
           (-60.0 70.0)
  end
  begin
     id 3 
     name ltibia
     direction 0.34202 -0.939693 0   
     length 7.71059   
     axis 0 0 20   XYZ
    dof rx
    limits (-10.0 170.0)
  end
  begin
     id 4 
     name lfoot
     direction 0.089538 -0.246004 0.965124   
     length 2.19909   
     axis -90 7.62852e-016 20   XYZ
    dof rx rz
    limits (-45.0 90.0)
           (-70.0 20.0)
  end
  begin
     id 5 
     name ltoes
     direction 1.53544e-011 -4.21829e-011 1   
     length 1.10116   
     axis -90 7.62852e-016 20   XYZ
    dof rx
    limits (-90.0 20.0)
  end
  begin
     id 6 
     name rhipjoint
     direction -0.554414 -0.743062 0.374812   
     length 2.4371  
     axis 0 0 0  XYZ 
  end
  begin
     id 7 
     name rfemur
     direction -0.34202 -0.939693 0   
     length 7.47254   
     axis 0 0 -20   XYZ
    dof rx ry rz
    limits (-160.0 20.0)
           (-70.0 70.0)
           (-70.0 60.0)
  end
  begin
     id 8 
     name rtibia
     direction -0.34202 -0.939693 0   
     length 7.65855   
     axis 0 0 -20   XYZ
    dof rx
    limits (-10.0 170.0)
 end
 begin
     id 9 
     name rfoot
     direction -0.133779 -0.367555 0.92033   
     length 2.43006  
     axis -90 -7.62852e-016 -20   XYZ
    dof rx rz
    limits (-45.0 90.0)
           (-20.0 70.0)
  end
  begin
     id 10 
     name rtoes
     direction -1.53563e-011 -4.21889e-011 1   
     length 1.19625   
     axis -90 -7.62852e-016 -20   XYZ
    dof rx
    limits (-90.0 20.0)
  end
  begin
     id 11 
     name lowerback
     direction 0.0249066 0.998043 -0.0573585   
     length 2.08485   
     axis 0 0 0   XYZ
    dof rx ry rz
    limits (-20.0 45.0)
           (-30.0 30.0)
           (-30.0 30.0)
  end
  begin
     id 12 
     name upperback
     direction 0.0237884 0.999673 0.00943178   
     length 2.08515   
     axis 0 0 0   XYZ
    dof rx ry rz
    limits (-20.0 45.0)
           (-30.0 30.0)
           (-30.0 30.0)
  end
  begin
     id 13 
     name thorax
     direction 0.0106671 0.999301 0.0358174   
     length 2.09037   
     axis 0 0 0   XYZ
    dof rx ry rz
    limits (-20.0 45.0)
           (-30.0 30.0)
           (-30.0 30.0)
  end
  begin
     id 14 
     name lowerneck
     direction -0.0580016 0.987052 0.149546   
     length 1.84454   
     axis 0 0 0   XYZ
    dof rx ry rz
    limits (-20.0 45.0)
           (-30.0 30.0)
           (-30.0 30.0)
  end
  begin
     id 15 
     name upperneck
     direction 0.079456 0.981963 -0.171567   
     length 1.88141   
     axis 0 0 0   XYZ
    dof rx ry rz
    limits (-20.0 45.0)
           (-30.0 30.0)
           (-30.0 30.0)
  end
  begin
     id 16
     name head
     direction 0.0262167 0.9967 -0.0768276  
     length 1.89541  
     axis 0 0 0   XYZ
    dof rx ry rz
    limits (-20.0 45.0)
           (-30.0 30.0)
           (-30.0 30.0)
  end
  begin
     id 17 
     name lclavicle
     direction 0.946135 0.322134 -0.0325326  
     length 3.949  
     axis 0 0 0   XYZ
    dof ry rz
    limits (-20.0 10.0)
           (0.0 20.0)
  end
  begin
     id 18 
     name lhumerus
     direction 1 -4.48964e-011 1.94005e-028   
     length 5.10995   
     axis 180 -30 -90   XYZ
    dof rx ry rz
    limits (-60.0 90.0)
           (-90.0 90.0)
           (-90.0 90.0)
  end
  begin
     id 19
     name lradius
     direction 1 -4.48976e-011 2.87852e-027   
     length 3.21207   
     axis 180 -30 -90   XYZ
    dof rx
    limits (-10.0 170.0)
  end
  begin
     id 20
     name lwrist
     direction 1 -4.48963e-011 1.9975e-027   
     length 1.60604   
     axis 2.96054e-016 90 90   XYZ
    dof ry
    limits (-180.0 0.0)
 end
  begin
     id 21 
     name lhand
     direction 1 -4.48919e-011 4.00227e-027   
     length 0.63349   
     axis -2.5488e-015 90 90   XYZ
    dof rx rz
    limits (-90.0 90.0)
           (-45.0 45.0)
  end
  begin
     id 22 
     name lfingers
     direction 1 -4.49037e-011 7.9652e-027   
     length 0.510736   
     axis -5.0975e-015 90 90   XYZ
    dof rx
    limits (0.0 90.0)
  end
  begin
     id 23
     name lthumb
     direction 0.707107 -6.34922e-011 0.707107   
     length 0.733318   
     axis -90 45 -4.48553e-014   XYZ
    dof rx rz
    limits (-45.0 45.0)
           (-45.0 45.0)
  end
  begin
     id 24 
     name rclavicle
     direction -0.940085 0.328911 -0.0897654   
     length 3.93848  
     axis 0 0 0   XYZ 
    dof ry rz
    limits (-10.0 20.0)
           (-20.0 0.0)
  end
  begin
     id 25 
     name rhumerus
     direction -1 -4.48958e-011 3.02044e-027  
     length 5.25109   
     axis 180 30 90   XYZ
    dof rx ry rz
    limits (-90.0 60.0)
           (-90.0 90.0)
           (-90.0 90.0)
  end
  begin
     id 26 
     name rradius
     direction -1 -4.4897e-011 9.78352e-028   
     length 3.28364   
     axis 180 30 90   XYZ
    dof rx
    limits (-10.0 170.0)
  end
  begin
     id 27 
     name rwrist
     direction -1 -4.48943e-011 1.99918e-027   
     length 1.64182   
     axis 2.96054e-016 -90 -90   XYZ
    dof ry
    limits (-180.0 0.0)
  end
  begin
     id 28
     name rhand
     direction -1 -4.49024e-011 3.98478e-027   
     length 0.599745   
     axis -2.5488e-015 -90 -90   XYZ
    dof rx rz
    limits (-90.0 90.0)
           (-45.0 45.0)
  end
  begin
     id 29
     name rfingers
     direction -1 -4.48914e-011 8.00621e-027   
     length 0.48353   
     axis -5.0975e-015 -90 -90   XYZ
    dof rx
    limits (0.0 90.0)
  end
  begin
     id 30
     name rthumb
     direction -0.707107 -6.34992e-011 0.707107   
     length 0.694255   
     axis -90 -45 4.48553e-014   XYZ
    dof rx rz
    limits (-45.0 45.0)
           (-45.0 45.0)
  end
:hierarchy
  begin
    root lhipjoint rhipjoint lowerback
    lhipjoint lfemur
    lfemur ltibia
    ltibia lfoot
    lfoot ltoes
    rhipjoint rfemur
    rfemur rtibia
    rtibia rfoot
    rfoot rtoes
    lowerback upperback
    upperback thorax
    thorax lowerneck lclavicle rclavicle
    lowerneck upperneck
    upperneck head
    lclavicle lhumerus
    lhumerus lradius
    lradius lwrist
    lwrist lhand lthumb
    lhand lfingers
    rclavicle rhumerus
    rhumerus rradius
    rradius rwrist
    rwrist rhand rthumb
    rhand rfingers
  end

#!OML:ASF E:\CV Data\Top Level 1\Subject 1\Session 1\player.ASF
:FULLY-SPECIFIED
:DEGREES
342
root 8.95843 15.3624 -4.19774 -35.3845 -114.026 0.173136
lowerback 17.143 1.28938 6.14007
upperback 4.99388 2.49289 2.60473
thorax -4.08416 1.04373 -1.20221
lowerneck -15.7747 15.4968 -4.86298
upperneck 32.3273 19.9025 11.637
head 11.2381 9.72169 7.54218
rclavicle -4.07509e-014 -2.3059e-014
rhumerus 1.66994 19.3993 -96.9838
rradius 70.8681
rwrist -16.3877
rhand -40.702 18.7796
rfingers 7.12502
rthumb -13.6444 -10.7532
lclavicle -4.07509e-014 -2.3059e-014
lhumerus 36.2657 -35.3281 57.4336
lradius 52.4856
lwrist -4.86772
lhand -36.8794 -2.82572
lfingers 7.12502
lthumb -9.95826 26.9187
rfemur 10.9508 10.6846 31.0178
rtibia 58.4367
rfoot -31.6062 -0.658603
rtoes 6.49415
lfemur -80.7649 20.7892 -10.8639
ltibia 63.3654
lfoot -4.79355 -1.09118
ltoes -9.93993
343
root 8.92311 15.3578 -4.15346 -35.0937 -114.196 -0.487839
lowerback 17.403 1.29621 6.18043
upperback 5.20125 2.4979 2.67803
thorax -4.00076 1.041 -1.15143
lowerneck -15.8355 15.5468 -4.82842
upperneck 32.3221 20.0264 11.4644
head 11.2643 9.7575 7.4983
rclavicle -4.01545e-014 2.62396e-014
rhumerus 1.51655 18.3057 -97.6058
rradius 68.2216
rwrist -18.6487
rhand -39.8955 16.708
rfingers 7.12502
rthumb -12.867 -12.8753
lclavicle -4.01545e-014 2.62396e-014
lhumerus 37.59 -34.6393 55.4965
lradius 49.1913
lwrist -7.28946
lhand -36.4137 -3.55041
lfingers 7.12502
lthumb -9.50896 26.215
rfemur 11.3656 10.7883 30.6048
rtibia 58.4265
rfoot -31.7818 -0.517216
rtoes 6.0665
lfemur -80.86 20.8214 -10.5449
ltibia 59.809
lfoot -4.3312 -1.85023
ltoes -10.2718
344
root 8.8886 15.3525 -4.10923 -34.8159 -114.359 -1.13474
lowerback 17.6648 1.29225 6.21152
upperback 5.41459 2.48534 2.74663
thorax -3.91259 1.02924 -1.09678
lowerneck -15.9134 15.5995 -4.81039
upperneck 32.3012 20.1605 11.2922
head 11.2849 9.79719 7.45761
rclavicle -9.14409e-015 5.48646e-014
rhumerus 1.3628 17.1913 -98.1709
rradius 65.5528
rwrist -21.1136
rhand -38.9438 14.7839
rfingers 7.12502
rthumb -11.9494 -14.8551
lclavicle -9.14409e-015 5.48646e-014
lhumerus 38.8477 -33.8962 53.5244
lradius 45.9583
lwrist -9.94363
lhand -35.9254 -4.31596
lfingers 7.12502
lthumb -9.03779 25.4704
rfemur 11.7641 10.8873 30.1817
rtibia 58.4263
rfoot -31.9561 -0.351578
rtoes 5.67798
lfemur -80.8353 20.8777 -10.1613
ltibia 56.2851
lfoot -3.96884 -2.6262
ltoes -10.7941
345
root 8.85466 15.3469 -4.06449 -34.5382 -114.508 -1.78456
lowerback 17.9328 1.27732 6.23745
upperback 5.63465 2.45561 2.803
thorax -3.82051 1.00867 -1.0486
lowerneck -16.006 15.6546 -4.81305
upperneck 32.2635 20.3037 11.1253
head 11.2979 9.84067 7.42161
rclavicle 6.30147e-014 -1.35174e-014
rhumerus 1.2098 16.0233 -98.6811
rradius 62.8443
rwrist -23.6518
rhand -37.8403 13.0097
rfingers 7.12502
rthumb -10.8852 -16.6882
lclavicle 6.30147e-014 -1.35174e-014
lhumerus 40.0353 -33.1086 51.5094
lradius 42.8111
lwrist -12.776
lhand -35.4681 -4.96046
lfingers 7.12502
lthumb -8.59652 24.8445
rfemur 12.1514 10.9769 29.733
rtibia 58.4335
rfoot -32.1327 -0.1551
rtoes 5.32206
lfemur -80.6923 20.9413 -9.71397
ltibia 52.8251
lfoot -3.68734 -3.34279
ltoes -11.3731
346
root 8.82088 15.3407 -4.01968 -34.2818 -114.641 -2.41105
lowerback 18.1998 1.25543 6.26148
upperback 5.8624 2.41413 2.85371
thorax -3.71944 0.982014 -1.00262
lowerneck -16.1082 15.7085 -4.83472
upperneck 32.2047 20.4497 10.9638
head 11.3014 9.88576 7.38868
rclavicle 1.82882e-014 -5.96354e-014
rhumerus 1.05719 14.7693 -99.1294
rradius 60.0765
rwrist -26.1144
rhand -36.5911 11.4063
rfingers 7.12502
rthumb -9.68016 -18.3512
lclavicle 1.82882e-014 -5.96354e-014
lhumerus 41.1507 -32.2988 49.4323
lradius 39.7909
lwrist -15.6827
lhand -35.0738 -5.39919
lfingers 7.12502
lthumb -8.216 24.4211
rfemur 12.5253 11.0489 29.2707
rtibia 58.4476
rfoot -32.3096 0.0301554
rtoes 4.91556
lfemur -80.4495 21.0085 -9.20138
ltibia 49.4634
lfoot -3.4562 -3.93664
ltoes -12.0124
347
root 8.78701 15.3337 -3.97477 -34.0437 -114.757 -3.01553
lowerback 18.4673 1.23038 6.28108
upperback 6.09395 2.36617 2.89999
thorax -3.61413 0.95181 -0.957214
lowerneck -16.2074 15.7631 -4.85648
upperneck 32.1289 20.5982 10.7965
head 11.2986 9.93211 7.35203
rclavicle 6.55989e-014 5.80451e-014
rhumerus 0.896921 13.4176 -99.5096
rradius 57.2332
rwrist -28.3773
rhand -35.2327 9.99461
rfingers 7.12502
rthumb -8.36934 -19.8196
lclavicle 6.55989e-014 5.80451e-014
lhumerus 42.1631 -31.4761 47.3227
lradius 36.8985
lwrist -18.4427
lhand -34.731 -5.77546
lfingers 7.12502
lthumb -7.88518 24.0575
rfemur 12.8845 11.1028 28.7961
rtibia 58.4704
rfoot -32.4864 0.204661
rtoes 4.4409
lfemur -80.1201 21.0783 -8.62351
ltibia 46.2378
lfoot -3.24399 -4.3415
ltoes -12.585
348
root 8.7525 15.3259 -3.92924 -33.8145 -114.859 -3.60011
lowerback 18.7301 1.20544 6.30851
upperback 6.32418 2.31866 2.93785
thorax -3.5062 0.921767 -0.924873
lowerneck -16.3007 15.8179 -4.85404
upperneck 32.0442 20.7408 10.6235
head 11.296 9.9781 7.30912
rclavicle -1.98785e-014 1.03368e-014
rhumerus 0.723542 11.945 -99.8147
rradius 54.3213
rwrist -30.3892
rhand -33.7631 8.73905
rfingers 7.12502
rthumb -6.95084 -21.1268
lclavicle -1.98785e-014 1.03368e-014
lhumerus 43.0503 -30.6446 45.2088
lradius 34.2037
lwrist -21.0517
lhand -34.3635 -5.79961
lfingers 7.12502
lthumb -7.53042 24.0463
rfemur 13.2246 11.1414 28.3072
rtibia 58.5027
rfoot -32.6678 0.355575
rtoes 3.86574
lfemur -79.7357 21.1635 -8.00684
ltibia 43.1919
lfoot -3.05326 -4.53341
ltoes -13.0995
